<?xml version="1.0" encoding="UTF-8"?>
<svg id="a" data-name="Layer 1" xmlns="http://www.w3.org/2000/svg" viewBox="0 0 1200 1200">
  <path d="M1091.5,796.92l16.22-144.08c9.95-89.81-2-177.62-34.37-254.38-38.7-91.81-103.06-169.87-186.08-225.75-37.54-25.46-78.57-45.81-121.92-60.35-106.67-36.38-225.75-35.92-330.48,0-138.79,46.78-251.09,151.19-308.14,286.17-32.43,76.56-44.19,164.56-34.37,254.38l16.22,144.08c.52,5.1-1.16,9.95-4.65,13.7-21.52,22.81-33.28,52.59-33.28,84,0,67.84,55.24,123.41,123.41,123.41,13.89,0,27.65-2.46,41.16-7.11,1.81-.52,3.62-.84,5.62-.84,3.49,0,6.98.97,9.95,3.17,4.65,3.17,7.3,8.46,7.3,14.09v62.03c0,13.89,11.11,25.33,24.62,25.33h136.27v-72.62c0-9.43,7.75-17.19,17.06-17.19s17.06,7.75,17.06,17.19v72.62h129.87v-72.62c0-9.43,7.62-17.19,17.06-17.19s17.06,7.75,17.06,17.19v72.62h129.87v-72.62c0-9.43,7.62-17.19,17.06-17.19s17.06,7.75,17.06,17.19v72.62h136.27c13.57,0,24.62-11.44,24.62-25.33v-62.03c0-5.62,2.84-10.92,7.3-14.09,4.65-3.17,10.4-3.94,15.57-2.33,13.57,4.78,27.27,7.11,41.16,7.11,68.16,0,123.41-55.44,123.41-123.41,0-31.4-11.76-61.19-33.28-84-3.3-3.62-5.1-8.59-4.65-13.7l.07-.07Z"/>
  <g>
    <circle cx="390.31" cy="623.62" r="191.44" style="fill: #fff;"/>
    <circle cx="809.69" cy="623.62" r="191.44" style="fill: #fff;"/>
  </g>
  <path d="M448.46,537.24c-56.6,0-102.54,46.13-102.54,103.06s46,102.73,102.54,102.73,102.22-46.13,102.22-102.73-46-103.06-102.22-103.06Z"/>
  <path d="M863.22,537.24c-56.41,0-102.22,46.13-102.22,103.06s46,102.73,102.22,102.73,102.54-46.13,102.54-102.73-46-103.06-102.54-103.06Z"/>
</svg>