<svg version="1.1" viewBox="0.0 0.0 480.0 480.0" fill="none" stroke="none" stroke-linecap="square" stroke-miterlimit="10" xmlns:xlink="http://www.w3.org/1999/xlink" xmlns="http://www.w3.org/2000/svg"><clipPath id="p.0"><path d="m0 0l480.0 0l0 480.0l-480.0 0l0 -480.0z" clip-rule="nonzero"/></clipPath><g clip-path="url(#p.0)"><path fill="#000000" fill-opacity="0.0" d="m0 0l480.0 0l0 480.0l-480.0 0z" fill-rule="evenodd"/><path fill="#f1c232" d="m93.25984 93.25984l0 0c81.04236 -81.04235 212.43797 -81.04235 293.4803 0l0 0c38.91794 38.917908 60.78177 91.70192 60.78177 146.74016c0 55.03824 -21.86383 107.822235 -60.78177 146.74014l0 0c-81.04233 81.04236 -212.43794 81.04236 -293.4803 0l0 0c-81.04235 -81.04233 -81.04235 -212.43794 0 -293.4803zm184.00954 270.97137c54.86151 -16.458466 92.43182 -66.9541 92.43182 -124.23123c0 -57.277115 -37.570312 -107.772766 -92.43182 -124.23122zm-74.53874 -248.46245l0 0c-54.861526 16.45845 -92.43184 66.9541 -92.43184 124.23122c0 57.27713 37.570312 107.772766 92.43184 124.23123z" fill-rule="evenodd"/></g></svg>